# File produced by Open Asset Import Library (http://www.assimp.sf.net)
# (assimp v5.0.639693989)

mtllib 2tk43ef6c125.mtl

# 37 vertex positions
v  1.0900002 0 0
v  -1.3535841e-16 0 -1.2361055e-16
v  0.5449999 0 -0.94396764
v  0.5449999 0 0.94396764
v  -0.5449999 0 -0.94396764
v  -1.8047784e-16 2.21 0
v  -0.5449999 0 0.94396764
v  0.5449999 1.9272203 -0.94396764
v  0.5449999 0.7100001 -0.94396764
v  1.0900002 0.64604795 -7.3104474e-15
v  0.5449999 0.7100001 0.94396764
v  -1.0900002 0.7100001 -1.334865e-16
v  -1.0900002 0 -1.334865e-16
v  -0.5449999 0.7100001 -1.5539676
v  1.0627954 0.7100001 -0.047119893
v  -0.5449999 0.7100001 1.2939677
v  2.6707287 2.8302813 -0.46640369
v  1.0753027 0.7100001 0.02545654
v  -1.0900002 1.4848667 3.5966017e-16
v  -0.68499988 1.42 -0.94396764
v  -0.5449999 2.6289074 0.94396764
v  1.6148713 2.6460958 0.47599855
v  2.6817014 1.7553875 0.58664984
v  2.3585241 1.6130613 0.43044388
v  0.5449999 3.0174894 0.94396764
v  -0.81619084 1.7381357 -1.3443661
v  -0.83573008 1.415015 -2.4412839
v  0.25426999 2.6322351 -1.8312839
v  -0.64533144 2.910342 0.76114804
v  -0.32653299 3.1259451 -0.59499526
v  -0.56899428 2.6962125 1.3129773
v  -0.60356241 0.87427133 2.1945994
v  -1.1422435 3.9269874 -0.60805464
v  -1.8272437 3.1369889 -1.5520223
v  0.21846689 3.9334362 0.34897238
v  0.51953083 3.088932 1.3356588
v  -2.6754887 3.8681304 -0.84400922

# 0 UV coordinates

# 59 vertex normals
vn 0 -0.0254 0
vn -0.021997044 -2.5919379e-17 -0.0127
vn 0.021997044 -1.0559006e-16 -0.0127
vn 0.021997044 3.1597983e-18 0.0127
vn -4.294868e-17 -1.3059762e-16 -0.0254
vn -0.020211106 0.010025383 0.011668887
vn 3.5070998e-18 -0.016552435 -0.019265952
vn 0.021997044 -5.8403517e-17 -0.0127
vn -0.024336677 0.0032154648 -0.0065227984
vn -0.0069630393 0.022001838 -0.010611092
vn 0.012404334 -2.6899031e-18 -0.02216512
vn 0.021997044 1.3365529e-15 -0.0127
vn 0.021997044 2.8960242e-17 0.0127
vn 0.0077654505 -1.4674446e-18 0.024183832
vn -1.1059193e-17 -0.011230694 0.022782264
vn -0.02340843 -2.0157883e-18 0.0098592816
vn -0.00074477016 -0.025387734 -0.00026120216
vn -7.3283927e-17 5.8536508e-17 -0.0254
vn -0.020211106 -0.010025383 -0.011668887
vn -0.023551082 -0.0084308013 0.0044077304
vn 0.0094367731 -0.011254425 -0.02072306
vn 0.012404334 -1.3636447e-16 -0.02216512
vn -0.0223222 -0.0021746438 -0.011922681
vn -0.008671212 0.021027531 -0.011305438
vn -0.0060563278 0.024587819 -0.0019799161
vn 0.0014134328 -0.025234567 -0.0025256418
vn 0.013400636 -0.0088116052 -0.019696156
vn 0.015011637 0.010462394 -0.017616726
vn 0.021997044 -4.2895773e-17 0.0127
vn 0.00067572738 -0.025303653 0.0021044081
vn 0.0077654505 -1.3059504e-17 0.024183832
vn -0.021357847 -0.0060786414 0.012330959
vn -0.02340843 -1.6924185e-18 0.0098592816
vn -0.02396865 0 -0.0084061706
vn -0.00074475288 -0.025387142 0.00031367881
vn -0.023853756 0.0024840238 -0.0083658732
vn -0.011583695 0.017412283 -0.014414937
vn -0.024314769 -0.0069171921 0.0024707199
vn 0.015302735 -0.01442233 -0.014247199
vn 0.018797137 -0.0098313671 -0.013970391
vn -0.021253129 -0.012068545 -0.0069148145
vn -0.025348192 -0.00029095091 -0.001595165
vn 0.017621245 0.005549544 -0.017431416
vn -0.0073437034 0.017808344 0.016555751
vn -0.0060312808 -0.0042035147 0.024312839
vn 0.01158808 0.015877811 0.016086375
vn 0.022092773 -0.00026338606 -0.012529962
vn 0.022956626 -0.010331877 0.0033772117
vn -0.022893054 0.0019743422 0.01082451
vn -0.023342321 1.2684465e-17 -0.01001479
vn -0.0039788797 0.0059809377 0.024363024
vn -0.017262241 0.017954413 -0.0049813692
vn -0.0044516446 0.012487138 0.02166597
vn -0.019755701 0.015822174 -0.00212866
vn -0.0044235168 0.010962512 0.022481455
vn -0.0083737196 0.023488808 -0.0048287432
vn -0.01905684 -0.015203277 -0.0071314257
vn 0.0019057173 0.018726107 -0.017054651
vn -0.013895974 0.014806686 0.015258567

# Mesh 'ID3' with 86 faces
g ID3
usemtl _0122_DarkOrchid
f  1//1 2//1 3//1
f  1//1 4//1 2//1
f  3//1 2//1 5//1
f  6//2 2//2 7//2
f  2//2 6//2 8//2
f  2//2 8//2 9//2
f  3//2 2//2 9//2
f  3//3 10//3 1//3
f  10//3 3//3 9//3
f  1//4 11//4 4//4
f  11//4 1//4 10//4
f  4//1 7//1 2//1
f  12//5 2//5 13//5
f  2//5 12//5 1//5
f  1//5 12//5 10//5
f  2//1 13//1 5//1
f  14//6 5//6 2//6
f  14//7 3//7 5//7
f  8//8 15//8 9//8
f  6//9 7//9 16//9
f  17//10 8//10 6//10
f  9//11 3//11 14//11
f  9//12 15//12 10//12
f  10//13 18//13 11//13
f  16//14 4//14 11//14
f  2//1 7//1 13//1
f  16//15 7//15 4//15
f  13//16 16//16 12//16
f  10//17 12//17 14//17
f  12//18 6//18 10//18
f  6//18 12//18 19//18
f  14//19 5//19 13//19
f  14//20 2//20 20//20
f  17//21 15//21 8//21
f  8//22 9//22 14//22
f  6//23 16//23 21//23
f  8//24 20//24 6//24
f  17//25 6//25 22//25
f  10//26 14//26 9//26
f  15//27 23//27 10//27
f  23//27 15//27 24//27
f  6//28 18//28 10//28
f  18//28 6//28 25//28
f  18//29 25//29 11//29
f  10//30 11//30 16//30
f  25//31 16//31 11//31
f  13//32 7//32 16//32
f  12//33 16//33 19//33
f  14//34 13//34 12//34
f  10//35 16//35 12//35
f  14//36 12//36 20//36
f  6//37 19//37 21//37
f  26//38 14//38 20//38
f  14//38 26//38 27//38
f  17//39 24//39 15//39
f  14//40 28//40 8//40
f  28//40 14//40 27//40
f  29//41 6//41 21//41
f  6//41 29//41 30//41
f  31//42 16//42 32//42
f  16//42 31//42 21//42
f  20//43 33//43 6//43
f  33//43 20//43 34//43
f  20//44 28//44 26//44
f  28//44 20//44 8//44
f  23//45 6//45 10//45
f  6//45 23//45 22//45
f  17//46 22//46 23//46
f  6//47 35//47 25//47
f  35//47 6//47 30//47
f  16//48 36//48 32//48
f  36//48 16//48 25//48
f  19//49 16//49 21//49
f  20//50 12//50 19//50
f  6//51 37//51 19//51
f  37//51 6//51 33//51
f  28//52 27//52 26//52
f  25//53 29//53 21//53
f  29//53 25//53 35//53
f  30//54 29//54 35//54
f  36//55 31//55 32//55
f  36//56 21//56 31//56
f  21//56 36//56 25//56
f  37//57 20//57 19//57
f  20//57 37//57 34//57
f  33//58 34//58 37//58

# Mesh 'ID11' with 1 faces
g ID11
usemtl _0122_DarkOrchid
f  17//59 24//59 23//59

